<!-- Generated by IcoMoon.io -->
<svg version="1.1" xmlns="http://www.w3.org/2000/svg" width="1280" height="512" viewBox="0 0 1280 512">
<title>logo-bymycar</title>
<path d="M589.038 50.74l0.192 10.957 7.817 5.638c19.84 14.487 36.999 30.933 51.751 49.388l0.41 0.531c5.639 7.305 15.124 20.954 16.405 23.709 0.256 0.512 1.538 2.82 2.884 4.999s4.357 7.882 6.663 12.496c10.509 21.082 17.366 42.357 20.378 62.927 3.588 24.671 3.588 39.217 0.063 63.76-1.923 12.944-3.909 21.082-9.034 35.885-10.254 29.861-27.042 58.185-51.391 86.829-7.241 8.459-30.119 31.207-38.769 38.449l-6.856 5.767v10.060c0 5.575 0.192 10.125 0.513 10.125 1.473 0 18.84-13.521 30.309-23.582 42.933-37.743 76.511-83.752 94.967-130.21 3.011-7.561 5.831-15.123 6.153-16.788s1.538-6.024 2.627-9.613c2.306-8.202 5.511-23.902 6.343-31.592 1.41-13.521-2.884-40.563-10.317-64.4-2.306-7.304-9.484-24.351-14.162-33.642-6.921-13.714-18.967-32.68-26.401-41.653l-5.831-7.112c-10.574-13.136-27.939-30.502-44.728-44.536-9.227-7.69-26.018-20.058-37.743-27.811l-2.371-1.577z"></path>
<path d="M847.857 189.089c-25.056 2.243-47.163 10.637-61.709 23.389-6.856 6.024-21.274 18.391-21.274 44.471 0 12.931 7.581 33.322 24.529 46.325s44.029 19.865 66.72 19.865c0.112 0 0.245 0 0.376 0 12.385 0 24.401-1.59 35.852-4.577l-0.985 0.219c8.266-2.051 19.865-6.344 19.865-7.368 0-0.449-8.843-10.894-9.227-10.894-0.128 0-2.306 0.961-4.934 2.179-11.855 5.447-25.056 7.753-41.268 7.241-14.034-0.512-21.338-2.179-32.745-7.498-12.688-5.895-22.043-14.802-27.169-25.952-3.461-7.433-4.678-12.88-4.678-21.145-0.063-8.907 1.154-13.97 5.383-22.619 2.563-5.319 4.038-7.434 7.817-11.214 5.511-5.511 8.458-7.626 16.149-11.535 6.527-3.335 14.11-5.767 22.115-6.877l0.376-0.042c20.505-2.371 37.807-0.127 53.955 6.921l6.729 3.011 4.999-5.447c2.755-2.947 4.742-5.575 4.55-5.831-1.154-1.154-10.188-5.126-16.212-7.113-15.893-5.313-31.592-7.042-49.213-5.505z"></path>
<path d="M407.947 189.731c-5.063 1.218-13.995 4.575-27.209 17.788-4.485 4.928-23.415 27.323-28.67 35.589-1.666 2.691-3.269 4.87-3.525 4.87-0.577 0-0.512-0.127 5.19-20.506 5.063-18.198 8.074-29.349 8.907-33.13 0.449-2.243 0.385-2.883-0.641-3.781-1.346-1.218-0.32-1.346-17.878 2.114-7.241 1.474-15.892 3.077-19.223 3.653s-7.626 1.281-9.483 1.666l-3.333 0.769v5.665h5.447c6.663 0 11.342 0.961 12.88 2.627 2.243 2.499 1.538 7.946-3.269 25.248-1.923 7.048-3.974 14.674-4.55 16.981s-3.139 11.662-5.704 20.825c-11.087 39.858-14.353 52.033-14.546 54.147l-0.192 2.243 10.317 0.192 10.317 0.127 2.243-2.691c2.691-3.333 3.397-4.678 3.909-7.368s12.368-34.283 14.353-38.192c0.832-1.73 2.627-5.575 3.974-8.651 5.447-12.623 18.199-33.514 26.273-43.061 7.753-9.227 20.954-19.738 26.144-20.826 2.884-0.577 6.28 0.641 7.178 2.627 1.666 3.781 0.832 8.651-5.382 31.336-1.538 5.638-2.947 11.087-3.139 12.175s-2.499 9.676-5.127 19.223-6.856 24.671-9.356 33.642-4.678 17.43-4.934 18.711l-0.385 2.435h22.941l1.666-2.115c1.021-1.322 1.865-2.85 2.461-4.497l0.038-0.118c3.204-9.997 12.432-35.053 16.020-43.638 8.33-19.672 17.558-36.719 26.144-48.188 7.561-10.125 13.97-15.828 22.428-19.864 4.358-2.051 5.973-1.583 7.241-1.474s4.421 3.203 4.421 6.28c0 1.024-1.281 6.857-2.884 13.008s-3.525 13.778-4.228 16.981-3.269 13.264-5.704 22.429c-9.483 36.14-11.214 43.767-11.214 49.983 0 5.127 0.192 6.087 1.73 8.714 3.011 5.127 8.779 6.663 17.558 4.743 6.536-1.41 10.637-3.525 17.238-8.651 5.319-4.165 20.825-21.916 20.825-23.839 0-0.704-3.333-4.998-3.909-4.998-0.192 0-2.435 2.691-5.063 5.895-9.291 11.599-15.956 17.815-19.032 17.815-1.859 0-3.397-3.139-3.397-7.048 0-5.831 4.228-20.633 12.752-44.664 9.099-25.761 11.675-49.669 9.952-56.262s-3.589-10.048-6.6-13.054-11.361-5.403-17.834-3.673c-3.845 1.024-16.168 6.554-27.639 18.025-3.608 3.673-22.73 26.126-28.048 35.353-0.641 1.154-1.41 2.114-1.666 2.114-0.704 0-0.897 0.833 2.691-10.574 4.165-13.264 5.959-21.916 5.575-26.913-0.385-5.126-3.333-11.47-6.728-14.546-4.228-3.87-11.47-5.28-18.327-3.679z"></path>
<path d="M565.841 189.474c-0.898 0.127-8.202 1.537-16.341 3.077s-16.534 2.947-18.711 3.203c-3.077 0.32-4.038 0.704-4.101 1.474-0.192 1.986 0 4.743 0.256 4.999 0.128 0.127 2.371 0 4.934-0.385 1.391-0.241 2.992-0.379 4.626-0.379 3.563 0 6.973 0.656 10.115 1.856l-0.194-0.065c4.229 1.537 8.073 5.703 11.279 12.111 2.371 4.743 10.445 29.155 12.239 37.102 0.577 2.306 2.434 9.613 4.229 16.341s4.614 19.223 6.408 27.875c5.703 28.387 5.768 29.156 2.306 36.014-6.985 13.714-30.119 39.602-35.372 39.602-2.371 0-5.768-1.603-10.445-4.998-7.112-5.127-11.279-5.831-16.212-2.755-3.944 2.416-6.537 6.701-6.537 11.591 0 0.011 0 0.022 0 0.034v-0.001c0.011 2.104 0.433 4.107 1.191 5.937l-0.039-0.103c2.306 4.87 10.317 8.779 16.405 8.074 3.845-0.449 15.251-4.294 22.043-9.42s4.485-3.333 6.793-5.127c20.569-16.212 44.471-48.188 66.259-88.688 18.903-35.179 31.72-70.809 30.053-83.689-0.832-6.407-5.511-10.894-11.279-10.894-1.602 0-3.077 0.256-3.269 0.577s0.128 1.537 0.705 2.691c1.666 3.203 1.923 13.778 0.513 20.57-1.346 6.6-5.318 19.16-8.971 28.066-4.87 11.855-15.956 33.962-23.325 46.458-1.666 2.82-3.845 6.536-4.807 8.202s-1.859 3.011-1.986 2.884-0.832-4.101-1.602-8.844c-2.115-14.226-7.561-39.794-11.342-53.443-5.703-20.633-5.831-20.954-7.817-26.338-4.101-11.214-7.946-19.096-10.509-21.595s-3.396-2.718-7.497-2.013z"></path>
<path d="M133.941 190.755c0 0.32 1.41 2.306 3.077 4.421s5.447 7.304 8.458 11.47 8.459 11.535 12.175 16.469c6.088 8.203 20.57 28.003 27.939 38.063l2.82 3.974v55.902h24.351v-56.519l9.163-11.535c4.999-6.407 10.701-13.584 12.624-15.956s9.869-12.432 17.622-22.173 15.315-19.352 16.854-21.211l2.82-3.333h-24.287l-2.306 3.333c-1.281 1.859-5.255 7.498-8.907 12.432s-12.175 16.854-19.032 26.273-12.624 17.429-12.88 17.75-1.666-1.346-3.139-3.525c-3.653-5.255-23.261-34.283-24.095-35.694-0.287-0.51-0.607-0.951-0.968-1.352l0.006 0.006c-0.192-0.192-3.139-4.55-6.6-9.805l-6.344-9.421h-14.674c-8.073 0-14.674 0.167-14.674 0.423z"></path>
<path d="M0.013 256.053v65.105l31.27-0.32c30.502-0.257 31.399-0.32 38.577-1.923 10.574-2.306 15.892-4.421 23.069-9.099 11.022-7.305 16.469-16.918 15.892-28.067-0.385-6.473-2.371-11.022-7.049-16.149-4.806-5.318-14.802-11.087-21.211-12.238-9.74-1.73-12.623-2.179-14.865-2.243-2.371-0.064-2.179-0.127 1.986-1.218 8.138-2.114 17.879-7.369 22.107-11.983 2.947-3.139 6.216-8.394 7.368-11.855 1.794-5.255 1.603-12.175-0.513-16.661-4.358-9.357-16.019-15.763-32.552-17.815-3.011-0.32-18.328-0.641-34.73-0.641h-29.349zM58.775 205.711c6.472 1.73 11.406 4.999 13.648 8.971 1.346 2.371 1.603 3.716 1.603 7.69-0.064 5.958-1.666 9.1-7.177 14.097-7.754 6.857-16.468 9.613-32.361 10.059l-10.765 0.385v-21.145c0-11.599 0.512-21.595 0.512-21.595s7.69-0.256 14.866-0.256c12.367 0.231 15.187 0.512 19.672 1.794zM49.675 260.181c9.035 0.704 13.777 1.859 19.864 4.806 5.383 2.563 9.805 6.663 11.855 10.894 2.306 4.807 2.243 12.175-0.192 17.11-2.179 4.485-5.704 7.561-11.662 10.445-8.266 3.909-11.599 4.421-29.477 4.485h-16.019l-0.192-23.389c-0.064-12.88 0.192-24.159 0.192-24.159s14.098-1.115 25.632-0.192z"></path>
<path d="M1024.399 197.804c-11.087 20.25-13.778 25.312-16.020 29.669-1.41 2.627-2.755 5.126-3.011 5.511s-2.691 4.678-5.255 9.613-7.69 14.354-11.279 21.082-8.779 16.212-11.407 21.146-6.537 11.983-8.523 15.699-5.318 9.805-7.304 13.649l-3.588 6.882 11.662-0.127 11.662-0.192 18.327-37.807 31.592-0.192c17.302-0.063 32.104 0 32.873 0.127 0.832 0.257 1.859 1.603 2.821 3.716 1.73 3.845 9.034 19.738 13.201 28.515l2.755 5.959h13.841c7.561 0 13.777-0.063 13.777-0.192s-2.627-5.511-5.831-11.983-10.508-21.402-16.275-33-17.494-35.5-26.208-53.058l-15.764-31.849h-18.264zM1038.688 222.411c4.55 11.791 12.111 29.221 16.534 38.063 1.794 3.525 3.397 7.048 3.653 7.817l0.449 1.474h-26.273c-14.482 0-26.337-0.127-26.337-0.32s3.909-8.202 8.651-17.942 10.254-21.467 12.111-26.144c5.958-14.61 6.152-14.994 6.793-13.841 0.32 0.602 2.306 5.447 4.421 10.894z"></path>
<path d="M1164.99 255.99v65.066h24.351v-53.827h25.312l1.474 2.115c0.769 1.090 2.435 3.461 3.653 5.255s6.921 9.997 12.752 18.264 12.368 17.686 14.61 20.954l4.037 5.895 14.61 0.063c11.535 0 14.545-0.192 14.162-0.832-0.256-0.385-7.434-9.676-15.892-20.57s-16.149-20.697-17.045-21.851-3.716-4.743-6.28-8.010l-4.614-5.959 4.55-2.499c11.022-5.958 19.096-14.674 22.428-24.222 2.051-5.895 2.114-16.085 0.063-21.211q-7.593-19.223-37.487-23.005c-2.883-0.32-17.686-0.641-32.937-0.641h-27.746zM1221.572 205.302c7.049 1.923 12.816 5.958 15.187 10.637 1.922 3.781 2.691 9.548 1.922 14.546-1.794 11.279-9.291 18.968-21.787 22.236-2.371 0.577-7.497 0.898-15.507 0.961l-12.047 0.127v-50.239l14.29 0.385c10.188 0.192 15.251 0.577 17.942 1.346z"></path>
</svg>
