<svg width="166" height="26" viewBox="0 0 166 26" fill="none" xmlns="http://www.w3.org/2000/svg">
<path d="M0 20.9989L2.11756 17.6117H14.3967C15.0926 17.6117 15.5463 17.158 15.5463 16.462V14.4965H4.9905C1.84558 14.4965 0.453682 13.1057 0.453682 10.0202V8.69002C0.453682 6.39076 1.81473 5 3.962 5H4.20427V9.95965C4.20427 10.6556 4.65795 11.1093 5.3539 11.1093H15.576C17.905 11.1093 19.2958 12.5 19.2958 14.7684V16.5226C19.2958 19.5167 17.8136 20.9989 14.7589 20.9989H0ZM73.581 17.5511H83.0775C84.65 17.5511 85.6487 16.5832 85.6487 15.0713V10.9276C85.6487 9.41568 84.6511 8.44775 83.0775 8.44775H73.581V17.5511ZM69.771 20.9989V5H83.1689C87.1606 5 89.4588 7.29812 89.4588 11.1093V14.8896C89.4588 18.7007 87.1606 20.9989 83.1678 20.9989H69.7699H69.771ZM51.3038 17.5511H59.3181C60.7694 17.5511 61.7076 16.6437 61.7076 15.2221V10.7767C61.7076 9.35512 60.7705 8.44775 59.3181 8.44775H51.3038C49.8524 8.44775 48.9142 9.35512 48.9142 10.7767V15.2221C48.9142 16.6437 49.8513 17.5511 51.3038 17.5511ZM59.4083 20.9989H51.2123C47.3406 20.9989 45.1031 18.7613 45.1031 15.0404V10.9573C45.1031 7.23755 47.3418 5 51.2123 5H59.4083C63.2801 5 65.5176 7.23755 65.5176 10.9584V15.0416C65.5176 18.7613 63.2801 21 59.4083 21V20.9989ZM91.0209 20.9989L100.003 5H105.295L114.278 20.9989H109.922L108.38 18.2471H100.728L98.6707 14.981L95.2835 21H91.0186L91.0209 20.9989ZM98.7632 14.7993H106.445L102.604 7.99407L98.7632 14.7993ZM7.95486 8.32662L5.77673 5H18.9324L16.8148 8.32662H7.95372H7.95486ZM23.4898 20.9989V5H27.3009V11.2304H32.352L38.9138 5H43.9649L35.618 12.9537L44.1168 20.9989H38.7641L32.2011 14.6782H27.302V20.9989H23.4909H23.4898Z" fill="#0d3b2e"/>

<path d="M126.86 14.73H123.978V21H122.394V5.512H127.124C128.121 5.512 129.001 5.71 129.764 6.106C130.526 6.502 131.113 7.052 131.524 7.756C131.949 8.44533 132.162 9.23 132.162 10.11C132.162 10.858 132.008 11.5327 131.7 12.134C131.406 12.7353 130.988 13.234 130.446 13.63C129.903 14.026 129.265 14.3047 128.532 14.466L133.724 21H131.81L126.86 14.73ZM123.978 13.278H127.058C127.747 13.278 128.356 13.1533 128.884 12.904C129.412 12.64 129.822 12.2733 130.116 11.804C130.409 11.32 130.556 10.7553 130.556 10.11C130.556 9.494 130.409 8.95133 130.116 8.482C129.837 7.998 129.434 7.624 128.906 7.36C128.392 7.096 127.798 6.964 127.124 6.964H123.978V13.278ZM135.676 15.808C135.676 16.6 135.837 17.3113 136.16 17.942C136.483 18.558 136.93 19.042 137.502 19.394C138.074 19.7313 138.719 19.9 139.438 19.9C140.831 19.9 141.939 19.3647 142.76 18.294L143.772 19.152C143.332 19.768 142.731 20.274 141.968 20.67C141.22 21.066 140.362 21.264 139.394 21.264C138.309 21.264 137.363 21.0147 136.556 20.516C135.764 20.0027 135.155 19.3133 134.73 18.448C134.305 17.5827 134.092 16.6147 134.092 15.544C134.092 14.5027 134.297 13.5493 134.708 12.684C135.119 11.804 135.713 11.1073 136.49 10.594C137.267 10.0807 138.177 9.824 139.218 9.824C140.23 9.824 141.095 10.0587 141.814 10.528C142.533 10.9827 143.068 11.606 143.42 12.398C143.787 13.1753 143.97 14.0407 143.97 14.994V15.698H135.676V15.808ZM139.174 11.188C138.573 11.188 138.03 11.3273 137.546 11.606C137.062 11.87 136.666 12.2587 136.358 12.772C136.05 13.2707 135.845 13.85 135.742 14.51H142.452C142.393 13.8207 142.217 13.2267 141.924 12.728C141.631 12.2293 141.249 11.848 140.78 11.584C140.311 11.32 139.775 11.188 139.174 11.188ZM150.762 9.824C151.657 9.824 152.419 10.0147 153.05 10.396C153.681 10.7627 154.15 11.2687 154.458 11.914C154.781 12.5593 154.942 13.2853 154.942 14.092V21H153.38V14.224C153.38 13.2267 153.123 12.4787 152.61 11.98C152.097 11.4667 151.393 11.21 150.498 11.21C149.897 11.21 149.369 11.3347 148.914 11.584C148.474 11.8333 148.071 12.178 147.704 12.618V21H146.142V10.088H147.022L147.704 11.298C148.129 10.7993 148.591 10.4327 149.09 10.198C149.589 9.94867 150.146 9.824 150.762 9.824ZM164.299 20.252C163.565 20.9267 162.685 21.264 161.659 21.264C161.013 21.264 160.434 21.132 159.921 20.868C159.422 20.5893 159.026 20.208 158.733 19.724C158.439 19.2253 158.293 18.6533 158.293 18.008V11.364H156.445V10.088H158.403V7.426L159.767 6.568H159.855V10.088H164.189V11.364H159.855V17.832C159.855 18.4187 160.023 18.9027 160.361 19.284C160.698 19.6507 161.16 19.834 161.747 19.834C162.377 19.834 162.964 19.6213 163.507 19.196L164.299 20.252Z" fill="#0d3b2e"/>
</svg>
